<svg viewBox="0 0 1400 1000" xmlns="http://www.w3.org/2000/svg">
  <!-- Title -->
  <text x="700" y="30" text-anchor="middle" font-family="Arial, sans-serif" font-size="24" font-weight="bold">Alchemorsel v2 - Data Flow Diagram</text>
  
  <!-- User Registration Flow -->
  <g id="registration-flow">
    <text x="100" y="80" font-family="Arial" font-size="18" font-weight="bold" fill="#1F2937">User Registration Flow</text>
    
    <!-- Start -->
    <circle cx="100" cy="120" r="20" fill="#10B981" stroke="#059669" stroke-width="2"/>
    <text x="100" y="125" text-anchor="middle" fill="white" font-size="12">Start</text>
    
    <!-- User Input -->
    <rect x="150" y="100" width="120" height="40" fill="#3B82F6" stroke="#2563EB" stroke-width="2" rx="5"/>
    <text x="210" y="125" text-anchor="middle" fill="white" font-size="12">User Input</text>
    
    <!-- Validation -->
    <polygon points="320,120 370,100 370,140 320,120" fill="#F59E0B" stroke="#D97706" stroke-width="2"/>
    <text x="345" y="125" text-anchor="middle" fill="white" font-size="12">Validate</text>
    
    <!-- Hash Password -->
    <rect x="420" y="100" width="120" height="40" fill="#8B5CF6" stroke="#7C3AED" stroke-width="2" rx="5"/>
    <text x="480" y="125" text-anchor="middle" fill="white" font-size="12">Hash Password</text>
    
    <!-- Store in DB -->
    <rect x="590" y="100" width="120" height="40" fill="#EF4444" stroke="#DC2626" stroke-width="2" rx="5"/>
    <text x="650" y="125" text-anchor="middle" fill="white" font-size="12">Store in DB</text>
    
    <!-- Generate JWT -->
    <rect x="760" y="100" width="120" height="40" fill="#8B5CF6" stroke="#7C3AED" stroke-width="2" rx="5"/>
    <text x="820" y="125" text-anchor="middle" fill="white" font-size="12">Generate JWT</text>
    
    <!-- Return Response -->
    <rect x="930" y="100" width="120" height="40" fill="#10B981" stroke="#059669" stroke-width="2" rx="5"/>
    <text x="990" y="125" text-anchor="middle" fill="white" font-size="12">Return Token</text>
    
    <!-- Flow arrows -->
    <path d="M 120 120 L 150 120" stroke="#333" stroke-width="2" fill="none" marker-end="url(#arrowhead)"/>
    <path d="M 270 120 L 320 120" stroke="#333" stroke-width="2" fill="none" marker-end="url(#arrowhead)"/>
    <path d="M 370 120 L 420 120" stroke="#333" stroke-width="2" fill="none" marker-end="url(#arrowhead)"/>
    <path d="M 540 120 L 590 120" stroke="#333" stroke-width="2" fill="none" marker-end="url(#arrowhead)"/>
    <path d="M 710 120 L 760 120" stroke="#333" stroke-width="2" fill="none" marker-end="url(#arrowhead)"/>
    <path d="M 880 120 L 930 120" stroke="#333" stroke-width="2" fill="none" marker-end="url(#arrowhead)"/>
  </g>
  
  <!-- Recipe Generation Flow -->
  <g id="recipe-generation-flow" transform="translate(0, 180)">
    <text x="100" y="80" font-family="Arial" font-size="18" font-weight="bold" fill="#1F2937">Recipe Generation Flow</text>
    
    <!-- Start -->
    <circle cx="100" cy="120" r="20" fill="#10B981" stroke="#059669" stroke-width="2"/>
    <text x="100" y="125" text-anchor="middle" fill="white" font-size="12">Start</text>
    
    <!-- User Request -->
    <rect x="150" y="100" width="120" height="40" fill="#3B82F6" stroke="#2563EB" stroke-width="2" rx="5"/>
    <text x="210" y="125" text-anchor="middle" fill="white" font-size="12">User Request</text>
    
    <!-- Auth Check -->
    <polygon points="320,120 370,100 370,140 320,120" fill="#F59E0B" stroke="#D97706" stroke-width="2"/>
    <text x="345" y="125" text-anchor="middle" fill="white" font-size="12">Auth?</text>
    
    <!-- Get User Prefs -->
    <rect x="420" y="100" width="120" height="40" fill="#EF4444" stroke="#DC2626" stroke-width="2" rx="5"/>
    <text x="480" y="115" text-anchor="middle" fill="white" font-size="10">Get User</text>
    <text x="480" y="130" text-anchor="middle" fill="white" font-size="10">Preferences</text>
    
    <!-- Build Prompt -->
    <rect x="590" y="100" width="120" height="40" fill="#8B5CF6" stroke="#7C3AED" stroke-width="2" rx="5"/>
    <text x="650" y="125" text-anchor="middle" fill="white" font-size="12">Build Prompt</text>
    
    <!-- Call DeepSeek -->
    <rect x="760" y="100" width="120" height="40" fill="#EC4899" stroke="#DB2777" stroke-width="2" rx="5"/>
    <text x="820" y="125" text-anchor="middle" fill="white" font-size="12">Call DeepSeek</text>
    
    <!-- Parse Response -->
    <rect x="930" y="100" width="120" height="40" fill="#8B5CF6" stroke="#7C3AED" stroke-width="2" rx="5"/>
    <text x="990" y="125" text-anchor="middle" fill="white" font-size="12">Parse Response</text>
    
    <!-- Generate Embedding -->
    <rect x="420" y="180" width="120" height="40" fill="#8B5CF6" stroke="#7C3AED" stroke-width="2" rx="5"/>
    <text x="480" y="195" text-anchor="middle" fill="white" font-size="10">Generate</text>
    <text x="480" y="210" text-anchor="middle" fill="white" font-size="10">Embedding</text>
    
    <!-- Store Recipe -->
    <rect x="590" y="180" width="120" height="40" fill="#EF4444" stroke="#DC2626" stroke-width="2" rx="5"/>
    <text x="650" y="205" text-anchor="middle" fill="white" font-size="12">Store Recipe</text>
    
    <!-- Return Recipe -->
    <rect x="760" y="180" width="120" height="40" fill="#10B981" stroke="#059669" stroke-width="2" rx="5"/>
    <text x="820" y="205" text-anchor="middle" fill="white" font-size="12">Return Recipe</text>
    
    <!-- Flow arrows -->
    <path d="M 120 120 L 150 120" stroke="#333" stroke-width="2" fill="none" marker-end="url(#arrowhead)"/>
    <path d="M 270 120 L 320 120" stroke="#333" stroke-width="2" fill="none" marker-end="url(#arrowhead)"/>
    <path d="M 370 120 L 420 120" stroke="#333" stroke-width="2" fill="none" marker-end="url(#arrowhead)"/>
    <path d="M 540 120 L 590 120" stroke="#333" stroke-width="2" fill="none" marker-end="url(#arrowhead)"/>
    <path d="M 710 120 L 760 120" stroke="#333" stroke-width="2" fill="none" marker-end="url(#arrowhead)"/>
    <path d="M 880 120 L 930 120" stroke="#333" stroke-width="2" fill="none" marker-end="url(#arrowhead)"/>
    <path d="M 990 140 L 480 180" stroke="#333" stroke-width="2" fill="none" marker-end="url(#arrowhead)"/>
    <path d="M 540 200 L 590 200" stroke="#333" stroke-width="2" fill="none" marker-end="url(#arrowhead)"/>
    <path d="M 710 200 L 760 200" stroke="#333" stroke-width="2" fill="none" marker-end="url(#arrowhead)"/>
    
    <!-- Error path -->
    <path d="M 345 140 L 345 260 L 820 260 L 820 220" stroke="#EF4444" stroke-width="2" fill="none" stroke-dasharray="5,5" marker-end="url(#arrowhead-red)"/>
    <text x="500" y="255" text-anchor="middle" fill="#EF4444" font-size="10">Unauthorized</text>
  </g>
  
  <!-- Recipe Search Flow -->
  <g id="recipe-search-flow" transform="translate(0, 480)">
    <text x="100" y="80" font-family="Arial" font-size="18" font-weight="bold" fill="#1F2937">Recipe Search Flow</text>
    
    <!-- Start -->
    <circle cx="100" cy="120" r="20" fill="#10B981" stroke="#059669" stroke-width="2"/>
    <text x="100" y="125" text-anchor="middle" fill="white" font-size="12">Start</text>
    
    <!-- Search Query -->
    <rect x="150" y="100" width="120" height="40" fill="#3B82F6" stroke="#2563EB" stroke-width="2" rx="5"/>
    <text x="210" y="125" text-anchor="middle" fill="white" font-size="12">Search Query</text>
    
    <!-- Check Cache -->
    <polygon points="320,120 370,100 370,140 320,120" fill="#F59E0B" stroke="#D97706" stroke-width="2"/>
    <text x="345" y="125" text-anchor="middle" fill="white" font-size="12">Cache?</text>
    
    <!-- Return Cached -->
    <rect x="420" y="60" width="120" height="40" fill="#10B981" stroke="#059669" stroke-width="2" rx="5"/>
    <text x="480" y="85" text-anchor="middle" fill="white" font-size="12">Return Cached</text>
    
    <!-- Generate Vector -->
    <rect x="420" y="140" width="120" height="40" fill="#8B5CF6" stroke="#7C3AED" stroke-width="2" rx="5"/>
    <text x="480" y="155" text-anchor="middle" fill="white" font-size="10">Generate</text>
    <text x="480" y="170" text-anchor="middle" fill="white" font-size="10">Query Vector</text>
    
    <!-- Vector Search -->
    <rect x="590" y="140" width="120" height="40" fill="#EF4444" stroke="#DC2626" stroke-width="2" rx="5"/>
    <text x="650" y="155" text-anchor="middle" fill="white" font-size="10">Vector</text>
    <text x="650" y="170" text-anchor="middle" fill="white" font-size="10">Search DB</text>
    
    <!-- Apply Filters -->
    <rect x="760" y="140" width="120" height="40" fill="#8B5CF6" stroke="#7C3AED" stroke-width="2" rx="5"/>
    <text x="820" y="165" text-anchor="middle" fill="white" font-size="12">Apply Filters</text>
    
    <!-- Cache Results -->
    <rect x="930" y="140" width="120" height="40" fill="#F59E0B" stroke="#D97706" stroke-width="2" rx="5"/>
    <text x="990" y="165" text-anchor="middle" fill="white" font-size="12">Cache Results</text>
    
    <!-- Return Results -->
    <rect x="1100" y="140" width="120" height="40" fill="#10B981" stroke="#059669" stroke-width="2" rx="5"/>
    <text x="1160" y="165" text-anchor="middle" fill="white" font-size="12">Return Results</text>
    
    <!-- Flow arrows -->
    <path d="M 120 120 L 150 120" stroke="#333" stroke-width="2" fill="none" marker-end="url(#arrowhead)"/>
    <path d="M 270 120 L 320 120" stroke="#333" stroke-width="2" fill="none" marker-end="url(#arrowhead)"/>
    
    <!-- Cache hit -->
    <path d="M 345 100 L 345 80 L 420 80" stroke="#10B981" stroke-width="2" fill="none" marker-end="url(#arrowhead)"/>
    <text x="380" y="75" text-anchor="middle" fill="#10B981" font-size="10">Hit</text>
    
    <!-- Cache miss -->
    <path d="M 370 120 L 370 160 L 420 160" stroke="#EF4444" stroke-width="2" fill="none" marker-end="url(#arrowhead)"/>
    <text x="390" y="155" text-anchor="middle" fill="#EF4444" font-size="10">Miss</text>
    
    <path d="M 540 160 L 590 160" stroke="#333" stroke-width="2" fill="none" marker-end="url(#arrowhead)"/>
    <path d="M 710 160 L 760 160" stroke="#333" stroke-width="2" fill="none" marker-end="url(#arrowhead)"/>
    <path d="M 880 160 L 930 160" stroke="#333" stroke-width="2" fill="none" marker-end="url(#arrowhead)"/>
    <path d="M 1050 160 L 1100 160" stroke="#333" stroke-width="2" fill="none" marker-end="url(#arrowhead)"/>
  </g>
  
  <!-- Data Storage Legend -->
  <g id="data-storage" transform="translate(100, 800)">
    <text x="0" y="0" font-family="Arial" font-size="16" font-weight="bold">Data Storage Locations:</text>
    
    <!-- PostgreSQL -->
    <rect x="0" y="20" width="20" height="20" fill="#EF4444"/>
    <text x="30" y="35" font-family="Arial" font-size="14">PostgreSQL - Users, Recipes, Favorites, Sessions</text>
    
    <!-- Redis -->
    <rect x="400" y="20" width="20" height="20" fill="#F59E0B"/>
    <text x="430" y="35" font-family="Arial" font-size="14">Redis - Cache, Rate Limiting, Session Data</text>
    
    <!-- S3 -->
    <rect x="0" y="50" width="20" height="20" fill="#10B981"/>
    <text x="30" y="65" font-family="Arial" font-size="14">AWS S3 - Profile Pictures, Recipe Images</text>
    
    <!-- External APIs -->
    <rect x="400" y="50" width="20" height="20" fill="#EC4899"/>
    <text x="430" y="65" font-family="Arial" font-size="14">External APIs - DeepSeek LLM</text>
  </g>
  
  <!-- Security Checkpoints -->
  <g id="security-points" transform="translate(900, 750)">
    <text x="0" y="0" font-family="Arial" font-size="16" font-weight="bold">Security Checkpoints:</text>
    
    <circle cx="10" cy="30" r="10" fill="#DC2626" stroke="#991B1B" stroke-width="2"/>
    <text x="5" y="35" text-anchor="middle" fill="white" font-size="10" font-weight="bold">!</text>
    <text x="30" y="35" font-family="Arial" font-size="14">Authentication (JWT Validation)</text>
    
    <circle cx="10" cy="60" r="10" fill="#DC2626" stroke="#991B1B" stroke-width="2"/>
    <text x="5" y="65" text-anchor="middle" fill="white" font-size="10" font-weight="bold">!</text>
    <text x="30" y="65" font-family="Arial" font-size="14">Input Validation & Sanitization</text>
    
    <circle cx="10" cy="90" r="10" fill="#DC2626" stroke="#991B1B" stroke-width="2"/>
    <text x="5" y="95" text-anchor="middle" fill="white" font-size="10" font-weight="bold">!</text>
    <text x="30" y="95" font-family="Arial" font-size="14">Rate Limiting</text>
  </g>
  
  <!-- Arrow definitions -->
  <defs>
    <marker id="arrowhead" markerWidth="10" markerHeight="7" refX="9" refY="3.5" orient="auto">
      <polygon points="0 0, 10 3.5, 0 7" fill="#333" />
    </marker>
    <marker id="arrowhead-red" markerWidth="10" markerHeight="7" refX="9" refY="3.5" orient="auto">
      <polygon points="0 0, 10 3.5, 0 7" fill="#EF4444" />
    </marker>
  </defs>
</svg>